<mxfile modified="2022-05-20T01:46:59.588Z" host="app.diagrams.net" agent="5.0 (Windows NT 10.0; Win64; x64) AppleWebKit/537.36 (KHTML, like Gecko) Chrome/101.0.4951.54 Safari/537.36" etag="aHD8FF6hQSDLx31_LlOa" compressed="false" version="18.0.8" type="google">
  <diagram name="INTEROPERABILITY VIEW" id="elSWU1GVEchQaEP6zHaq">
    <mxGraphModel grid="1" page="1" gridSize="10" guides="1" tooltips="1" connect="1" arrows="1" fold="1" pageScale="1" pageWidth="827" pageHeight="1169" math="0" shadow="0">
      <root>
        <mxCell id="PB9p4yJ5IArOYlQr9fzA-0" />
        <mxCell id="PB9p4yJ5IArOYlQr9fzA-1" value="Title" parent="PB9p4yJ5IArOYlQr9fzA-0" />
        <mxCell id="PB9p4yJ5IArOYlQr9fzA-2" value="Interopability View" style="text;html=1;strokeColor=none;fillColor=none;align=center;verticalAlign=middle;whiteSpace=wrap;rounded=0;fontSize=48;opacity=30;" vertex="1" parent="PB9p4yJ5IArOYlQr9fzA-1">
          <mxGeometry x="160" y="200" width="480" height="320" as="geometry" />
        </mxCell>
        <mxCell id="PB9p4yJ5IArOYlQr9fzA-3" value="About" parent="PB9p4yJ5IArOYlQr9fzA-0" />
      </root>
    </mxGraphModel>
  </diagram>
</mxfile>
